:FULLY-SPECIFIED
:FORCE-ALL-JOINTS-BE-3DOF
:DEGREES
68
root 5.93212 16.7499 -28.0705 0 0 0
lfemur 0 0 0
ltibia 0 0 0
lfoot 0 0 0
ltoes 0 0 0
rfemur 0 0 0
rtibia 0 0 0
rfoot 0 0 0
rtoes -7.72817 0 0
lowerback 0 0 0
upperback 0 0 0
thorax 0 0 0
lowerneck 0 0 0
upperneck -5.3403 -3.53365 2.0517
head -0.024453 -1.78031 0.162335
lclavicle 0 0 0
lhumerus -40.8149 -12.3887 93.9885
lradius 0 0 0
lwrist 7.91959 0 0
lhand -10.9478 2.43448 0.000896886
lfingers 0 0 0
lthumb 0 0 0
rclavicle 0 0 0
rhumerus 0 0 0
rradius 42.6479 -0 0
rwrist 7.21716 0 0
rhand -24.5625 -21.7876 0.00569376
rfingers 0 0 0
rthumb 1.934 -51.7563 0.00561335
69
root 5.94725 16.7451 -28.0432 0 0 0
lfemur 0 0 0
ltibia 0 0 0
lfoot 0 0 0
ltoes 0 0 0
rfemur 0 0 0
rtibia 0 0 0
rfoot 0 0 0
rtoes -7.75365 0 0
lowerback 0 0 0
upperback 0 0 0
thorax 0 0 0
lowerneck 0 0 0
upperneck -5.32303 -3.64564 2.01045
head -0.0180678 -1.83708 0.135021
lclavicle 0 0 0
lhumerus -40.9695 -12.1112 93.8332
lradius 0 0 0
lwrist 8.03186 0 0
lhand -10.8302 2.45423 0.00113023
lfingers 0 0 0
lthumb 0 0 0
rclavicle 0 0 0
rhumerus 0 0 0
rradius 42.792 -0 0
rwrist 7.19998 0 0
rhand -24.4088 -21.6917 0.00717515
rfingers 0 0 0
rthumb 2.08246 -51.6584 0.00707382
70
root 5.96349 16.7405 -28.0138 0 0 0
lfemur 0 0 0
ltibia 0 0 0
lfoot 0 0 0
ltoes 0 0 0
rfemur 0 0 0
rtibia 0 0 0
rfoot 0 0 0
rtoes -7.7811 0 0
lowerback 0 0 0
upperback 0 0 0
thorax 0 0 0
lowerneck 0 0 0
upperneck -5.30433 -3.76624 1.96598
head -0.011161 -1.89822 0.105597
lclavicle 0 0 0
lhumerus -41.1367 -11.8129 93.6653
lradius 0 0 0
lwrist 8.15276 0 0
lhand -10.7036 2.4755 0.0013362
lfingers 0 0 0
lthumb 0 0 0
rclavicle 0 0 0
rhumerus 0 0 0
rradius 42.9472 -0 0
rwrist 7.18149 0 0
rhand -24.2433 -21.5884 0.00848278
rfingers 0 0 0
rthumb 2.24234 -51.553 0.00836298
71
root 5.98087 16.7359 -27.9824 0 0 0
lfemur 0 0 0
ltibia 0 0 0
lfoot 0 0 0
ltoes 0 0 0
rfemur 0 0 0
rtibia 0 0 0
rfoot 0 0 0
rtoes -7.81005 0 0
lowerback 0 0 0
upperback 0 0 0
thorax 0 0 0
lowerneck 0 0 0
upperneck -5.2845 -3.89344 1.91902
head -0.0038403 -1.96271 0.0745472
lclavicle 0 0 0
lhumerus -41.3139 -11.4987 93.4874
lradius 0 0 0
lwrist 8.2803 0 0
lhand -10.5701 2.49794 0.00150254
lfingers 0 0 0
lthumb 0 0 0
rclavicle 0 0 0
rhumerus 0 0 0
rradius 43.111 -0 0
rwrist 7.16198 0 0
rhand -24.0686 -21.4795 0.0095388
rfingers 0 0 0
rthumb 2.41101 -51.4418 0.00940409
72
root 5.99946 16.7315 -27.9492 0 0 0
lfemur 0 0 0
ltibia 0 0 0
lfoot 0 0 0
ltoes 0 0 0
rfemur 0 0 0
rtibia 0 0 0
rfoot 0 0 0
rtoes -7.84005 0 0
lowerback 0 0 0
upperback 0 0 0
thorax 0 0 0
lowerneck 0 0 0
upperneck -5.26384 -4.02527 1.8703
head 0.00378446 -2.02954 0.0423556
lclavicle 0 0 0
lhumerus -41.4984 -11.1736 93.3022
lradius 0 0 0
lwrist 8.41249 0 0
lhand -10.4316 2.5212 0.00161974
lfingers 0 0 0
lthumb 0 0 0
rclavicle 0 0 0
rhumerus 0 0 0
rradius 43.2807 -0 0
rwrist 7.14176 0 0
rhand -23.8876 -21.3665 0.0102828
rfingers 0 0 0
rthumb 2.58583 -51.3265 0.0101376
73
root 6.01928 16.7272 -27.9146 0 0 0
lfemur 0 0 0
ltibia 0 0 0
lfoot 0 0 0
ltoes 0 0 0
rfemur 0 0 0
rtibia 0 0 0
rfoot 0 0 0
rtoes -7.87066 0 0
lowerback 0 0 0
upperback 0 0 0
thorax 0 0 0
lowerneck 0 0 0
upperneck -5.24264 -4.15973 1.82053
head 0.0116015 -2.09772 0.00950636
lclavicle 0 0 0
lhumerus -41.6874 -10.8425 93.1123
lradius 0 0 0
lwrist 8.54734 0 0
lhand -10.2904 2.54492 0.00168138
lfingers 0 0 0
lthumb 0 0 0
rclavicle 0 0 0
rhumerus 0 0 0
rradius 43.4538 -0 0
rwrist 7.12113 0 0
rhand -23.7029 -21.2513 0.0106742
rfingers 0 0 0
rthumb 2.76417 -51.2089 0.0105235
74
root 6.0404 16.7231 -27.8786 0 0 0
lfemur 0 0 0
ltibia 0 0 0
lfoot 0 0 0
ltoes 0 0 0
rfemur 0 0 0
rtibia 0 0 0
rfoot 0 0 0
rtoes -7.90142 0 0
lowerback 0 0 0
upperback 0 0 0
thorax 0 0 0
lowerneck 0 0 0
upperneck -5.22121 -4.29483 1.77047
head 0.0194969 -2.16622 -0.0235155
lclavicle 0 0 0
lhumerus -41.8783 -10.5105 92.9207
lradius 0 0 0
lwrist 8.68286 0 0
lhand -10.1485 2.56876 0.00168442
lfingers 0 0 0
lthumb 0 0 0
rclavicle 0 0 0
rhumerus 0 0 0
rradius 43.6278 -0 0
rwrist 7.1004 0 0
rhand -23.5174 -21.1356 0.0106935
rfingers 0 0 0
rthumb 2.94338 -51.0907 0.0105425
75
root 6.06284 16.7191 -27.8415 0 0 0
lfemur 0 0 0
ltibia 0 0 0
lfoot 0 0 0
ltoes 0 0 0
rfemur 0 0 0
rtibia 0 0 0
rfoot 0 0 0
rtoes -7.93188 0 0
lowerback 0 0 0
upperback 0 0 0
thorax 0 0 0
lowerneck 0 0 0
upperneck -5.19987 -4.42859 1.72083
head 0.0273541 -2.23405 -0.0562245
lclavicle 0 0 0
lhumerus -42.0683 -10.1823 92.73
lradius 0 0 0
lwrist 8.81704 0 0
lhand -10.008 2.59237 0.00162924
lfingers 0 0 0
lthumb 0 0 0
rclavicle 0 0 0
rhumerus 0 0 0
rradius 43.8001 -0 0
rwrist 7.07988 0 0
rhand -23.3336 -21.0209 0.0103432
rfingers 0 0 0
rthumb 3.12084 -50.9737 0.0101971
76
root 6.08668 16.7154 -27.8036 0 0 0
lfemur 0 0 0
ltibia 0 0 0
lfoot 0 0 0
ltoes 0 0 0
rfemur 0 0 0
rtibia 0 0 0
rfoot 0 0 0
rtoes -7.96158 0 0
lowerback 0 0 0
upperback 0 0 0
thorax 0 0 0
lowerneck 0 0 0
upperneck -5.17895 -4.55902 1.67237
head 0.0350545 -2.3002 -0.0881342
lclavicle 0 0 0
lhumerus -42.2544 -9.86288 92.5431
lradius 0 0 0
lwrist 8.94791 0 0
lhand -9.87092 2.6154 0.00151965
lfingers 0 0 0
lthumb 0 0 0
rclavicle 0 0 0
rhumerus 0 0 0
rradius 43.9681 -0 0
rwrist 7.05986 0 0
rhand -23.1544 -20.9092 0.00964745
rfingers 0 0 0
rthumb 3.29391 -50.8596 0.0095112
77
root 6.11193 16.7118 -27.7649 0 0 0
lfemur 0 0 0
ltibia 0 0 0
lfoot 0 0 0
ltoes 0 0 0
rfemur 0 0 0
rtibia 0 0 0
rfoot 0 0 0
rtoes -7.99008 0 0
lowerback 0 0 0
upperback 0 0 0
thorax 0 0 0
lowerneck 0 0 0
upperneck -5.15877 -4.68414 1.62582
head 0.0424772 -2.36365 -0.118758
lclavicle 0 0 0
lhumerus -42.4338 -9.55697 92.363
lradius 0 0 0
lwrist 9.07346 0 0
lhand -9.73943 2.63749 0.00136275
lfingers 0 0 0
lthumb 0 0 0
rclavicle 0 0 0
rhumerus 0 0 0
rradius 44.1293 -0 0
rwrist 7.04065 0 0
rhand -22.9825 -20.8019 0.00865135
rfingers 0 0 0
rthumb 3.45994 -50.7501 0.00852917
78
root 6.13867 16.7085 -27.7258 0 0 0
lfemur 0 0 0
ltibia 0 0 0
lfoot 0 0 0
ltoes 0 0 0
rfemur 0 0 0
rtibia 0 0 0
rfoot 0 0 0
rtoes -8.01692 0 0
lowerback 0 0 0
upperback 0 0 0
thorax 0 0 0
lowerneck 0 0 0
upperneck -5.13967 -4.80196 1.58193
head 0.0494992 -2.42341 -0.147608
lclavicle 0 0 0
lhumerus -42.6035 -9.26938 92.1927
lradius 0 0 0
lwrist 9.1917 0 0
lhand -9.61561 2.65829 0.00116864
lfingers 0 0 0
lthumb 0 0 0
rclavicle 0 0 0
rhumerus 0 0 0
rradius 44.2811 -0 0
rwrist 7.02257 0 0
rhand -22.8206 -20.7009 0.00741896
rfingers 0 0 0
rthumb 3.61631 -50.647 0.00731419
79
root 6.16692 16.7055 -27.6864 0 0 0
lfemur 0 0 0
ltibia 0 0 0
lfoot 0 0 0
ltoes 0 0 0
rfemur 0 0 0
rtibia 0 0 0
rfoot 0 0 0
rtoes -8.04165 0 0
lowerback 0 0 0
upperback 0 0 0
thorax 0 0 0
lowerneck 0 0 0
upperneck -5.12198 -4.9105 1.54146
head 0.0559959 -2.47847 -0.174197
lclavicle 0 0 0
lhumerus -42.7605 -9.00486 92.0351
lradius 0 0 0
lwrist 9.30064 0 0
lhand -9.50152 2.67746 0.00094999
lfingers 0 0 0
lthumb 0 0 0
rclavicle 0 0 0
rhumerus 0 0 0
rradius 44.4209 -0 0
rwrist 7.0059 0 0
rhand -22.6714 -20.6079 0.00603088
rfingers 0 0 0
rthumb 3.76038 -50.552 0.00594572
80
root 6.19674 16.7027 -27.647 0 0 0
lfemur 0 0 0
ltibia 0 0 0
lfoot 0 0 0
ltoes 0 0 0
rfemur 0 0 0
rtibia 0 0 0
rfoot 0 0 0
rtoes -8.06382 0 0
lowerback 0 0 0
upperback 0 0 0
thorax 0 0 0
lowerneck 0 0 0
upperneck -5.10606 -5.00778 1.50514
head 0.0618411 -2.52782 -0.198036
lclavicle 0 0 0
lhumerus -42.9018 -8.76811 91.8933
lradius 0 0 0
lwrist 9.39829 0 0
lhand -9.39925 2.69464 0.000721573
lfingers 0 0 0
lthumb 0 0 0
rclavicle 0 0 0
rhumerus 0 0 0
rradius 44.5463 -0 0
rwrist 6.99096 0 0
rhand -22.5377 -20.5245 0.00458079
rfingers 0 0 0
rthumb 3.88951 -50.4669 0.0045161
81
root 6.22817 16.7002 -27.6078 0 0 0
lfemur 0 0 0
ltibia 0 0 0
lfoot 0 0 0
ltoes 0 0 0
rfemur 0 0 0
rtibia 0 0 0
rfoot 0 0 0
rtoes -8.08297 0 0
lowerback 0 0 0
upperback 0 0 0
thorax 0 0 0
lowerneck 0 0 0
upperneck -5.09226 -5.09181 1.47374
head 0.0669078 -2.57045 -0.218636
lclavicle 0 0 0
lhumerus -43.0242 -8.56386 91.7704
lradius 0 0 0
lwrist 9.48266 0 0
lhand -9.3109 2.70948 0.000499545
lfingers 0 0 0
lthumb 0 0 0
rclavicle 0 0 0
rhumerus 0 0 0
rradius 44.6546 -0 0
rwrist 6.97806 0 0
rhand -22.4222 -20.4524 0.00317126
rfingers 0 0 0
rthumb 4.00107 -50.3933 0.00312648
82
root 6.26126 16.6981 -27.569 0 0 0
lfemur 0 0 0
ltibia 0 0 0
lfoot 0 0 0
ltoes 0 0 0
rfemur 0 0 0
rtibia 0 0 0
rfoot 0 0 0
rtoes -8.09865 0 0
lowerback 0 0 0
upperback 0 0 0
thorax 0 0 0
lowerneck 0 0 0
upperneck -5.08092 -5.16062 1.44801
head 0.0710684 -2.60536 -0.235509
lclavicle 0 0 0
lhumerus -43.1248 -8.39679 91.6695
lradius 0 0 0
lwrist 9.55174 0 0
lhand -9.23856 2.72163 0.000300683
lfingers 0 0 0
lthumb 0 0 0
rclavicle 0 0 0
rhumerus 0 0 0
rradius 44.7433 -0 0
rwrist 6.96749 0 0
rhand -22.3276 -20.3934 0.00190882
rfingers 0 0 0
rthumb 4.09243 -50.3331 0.00188186
83
root 6.29606 16.6963 -27.5307 0 0 0
lfemur 0 0 0
ltibia 0 0 0
lfoot 0 0 0
ltoes 0 0 0
rfemur 0 0 0
rtibia 0 0 0
rfoot 0 0 0
rtoes -8.11041 0 0
lowerback 0 0 0
upperback 0 0 0
thorax 0 0 0
lowerneck 0 0 0
upperneck -5.07239 -5.21223 1.4287
head 0.0741957 -2.63154 -0.248165
lclavicle 0 0 0
lhumerus -43.2003 -8.2716 91.5936
lradius 0 0 0
lwrist 9.60356 0 0
lhand -9.18429 2.73075 0.000141465
lfingers 0 0 0
lthumb 0 0 0
rclavicle 0 0 0
rhumerus 0 0 0
rradius 44.8098 -0 0
rwrist 6.95957 0 0
rhand -22.2566 -20.3491 0.000898056
rfingers 0 0 0
rthumb 4.16095 -50.2879 0.000885375
84
root 6.3326 16.6948 -27.4932 0 0 0
lfemur 0 0 0
ltibia 0 0 0
lfoot 0 0 0
ltoes 0 0 0
rfemur 0 0 0
rtibia 0 0 0
rfoot 0 0 0
rtoes -8.1178 0 0
lowerback 0 0 0
upperback 0 0 0
thorax 0 0 0
lowerneck 0 0 0
upperneck -5.06702 -5.24464 1.41656
head 0.0761633 -2.64798 -0.256117
lclavicle 0 0 0
lhumerus -43.2479 -8.19301 91.5459
lradius 0 0 0
lwrist 9.63611 0 0
lhand -9.15021 2.73647 3.70289e-05
lfingers 0 0 0
lthumb 0 0 0
rclavicle 0 0 0
rhumerus 0 0 0
rradius 44.8516 -0 0
rwrist 6.95459 0 0
rhand -22.2121 -20.3213 0.000235068
rfingers 0 0 0
rthumb 4.20399 -50.2595 0.000231749
85
root 6.37095 16.6937 -27.4568 10.0995 4.43823 -6.29198
lfemur -37.3696 9.12022 -9.94757
ltibia 45.6242 0 0
lfoot -18.7298 4.14513 0
ltoes 20.0194 0 0
rfemur -11.9622 -4.84427 23.0312
rtibia 26.9565 0 0
rfoot -28.7462 -15.4288 0
rtoes -8.12036 0 0
lowerback -2.92698 3.78781 3.35207
upperback -1.91954 4.97577 0.704132
thorax -0.11394 2.4681 -1.00039
lowerneck -10.3307 -3.7334 3.28285
upperneck -5.06516 -5.25589 1.41235
head 0.0768465 -2.65369 -0.258876
lclavicle 3.05631e-15 1.64991e-14 0
lhumerus -43.2644 -8.16575 91.5293
lradius 45.0418 0 0
lwrist 9.6474 0 0
lhand -9.13838 2.73846 0
lfingers 7.12502 0 0
lthumb 16.8132 32.0305 0
rclavicle 3.05631e-15 1.64991e-14 0
rhumerus -37.6291 2.93731 -88.5085
rradius 44.8661 0 0
rwrist 6.95286 0 0
rhand -22.1966 -20.3117 0
rfingers 7.12502 0 0
rthumb 4.21892 -50.2497 0
86
root 6.41242 16.6929 -27.4201 0 0 0
lfemur 0 0 0
ltibia 0 0 0
lfoot -18.6904 3.81031 -0.00397964
ltoes 0 0 0
rfemur -12.7779 -4.6887 22.4258
rtibia 28.7111 -0 0
rfoot -27.0566 -14.47 0.558233
rtoes -7.36238 0 0
lowerback 0 0 0
upperback -1.87262 4.87956 0.74351
thorax -0.16972 2.41918 -0.910756
lowerneck -10.3394 -3.76438 3.25128
upperneck 0 0 0
head 0.119591 -2.67228 -0.262817
lclavicle 0 0 0
lhumerus 0 0 0
lradius 0 0 0
lwrist 9.80291 0 0
lhand -8.64654 2.91389 0.0261803
lfingers 0 0 0
lthumb 0 0 0
rclavicle 0 0 0
rhumerus 0 0 0
rradius 0 0 0
rwrist 6.866 0 0
rhand 0 0 0
rfingers 0 0 0
rthumb 0 0 0
87
root 6.45804 16.6925 -27.3817 0 0 0
lfemur 0 0 0
ltibia 0 0 0
lfoot -18.6397 3.37926 -0.00876406
ltoes 0 0 0
rfemur -13.8301 -4.50111 21.6434
rtibia 30.9699 -0 0
rfoot -24.8679 -13.212 1.2347
rtoes -6.38658 0 0
lowerback 0 0 0
upperback -1.81234 4.75565 0.794078
thorax -0.241638 2.35634 -0.795299
lowerneck -10.3507 -3.80427 3.21065
upperneck 0 0 0
head 0.174621 -2.69621 -0.267911
lclavicle 0 0 0
lhumerus 0 0 0
lradius 0 0 0
lwrist 10.0031 0 0
lhand -8.01324 3.14004 0.0576647
lfingers 0 0 0
lthumb 0 0 0
rclavicle 0 0 0
rhumerus 0 0 0
rradius 0 0 0
rwrist 6.75417 0 0
rhand 0 0 0
rfingers 0 0 0
rthumb 0 0 0
